<svg id="Layer_1" data-name="Layer 1" xmlns="http://www.w3.org/2000/svg" viewBox="0 0 24 24"><defs><style>.cls-1{fill:#4a5568;}</style></defs><path class="cls-1" d="M17.5,2a4.5,4.5,0,0,0-4.36,3.38A.5.5,0,0,0,13.5,6a.51.51,0,0,0,.61-.36,3.5,3.5,0,1,1,6,3.2.5.5,0,1,0,.75.67A4.5,4.5,0,0,0,17.5,2Z"/><path class="cls-1" d="M5.5,18a.5.5,0,0,0,0-1,2.5,2.5,0,0,1,0-5,.5.5,0,0,0,.5-.5V11a4,4,0,0,1,4-4h.5A3.5,3.5,0,0,1,14,10.5a.5.5,0,0,0,1,0,4.07,4.07,0,0,0,0-.5h.53a3.5,3.5,0,0,1,0,7,.5.5,0,0,0,0,1,4.5,4.5,0,0,0,0-9h-.76A4.49,4.49,0,0,0,10.5,6H10a5,5,0,0,0-5,5,3.5,3.5,0,0,0,.5,7Z"/><path class="cls-1" d="M11.38,22a.5.5,0,0,0,.61-.36l1-4A.51.51,0,0,0,12.5,17H10.14L11,13.62a.5.5,0,0,0-1-.24l-1,4A.51.51,0,0,0,9.5,18h2.36L11,21.38A.5.5,0,0,0,11.38,22Z"/></svg>