<svg id="Layer_1" data-name="Layer 1" xmlns="http://www.w3.org/2000/svg" viewBox="0 0 24 24"><defs><style>.cls-1{fill:#4a5568;}</style></defs><path class="cls-1" d="M11.5,2V5a.5.5,0,0,0,1,0V2a.5.5,0,0,0-1,0Z"/><path class="cls-1" d="M19.35,4.65a.48.48,0,0,0-.7,0l-2,2.05a.49.49,0,0,0,.7.7l2.05-2.05A.48.48,0,0,0,19.35,4.65Z"/><path class="cls-1" d="M18.5,12a.5.5,0,0,0,.5.5h3a.5.5,0,0,0,0-1H19A.5.5,0,0,0,18.5,12Z"/><path class="cls-1" d="M2,12.5H5a.5.5,0,0,0,0-1H2a.5.5,0,0,0,0,1Z"/><path class="cls-1" d="M7.4,7.4a.48.48,0,0,0,0-.7l-2.05-2a.49.49,0,0,0-.7.7L6.7,7.4A.48.48,0,0,0,7.4,7.4Z"/><path class="cls-1" d="M7,12.5a.5.5,0,0,0,.5-.5,4.5,4.5,0,0,1,9,0,.5.5,0,0,0,1,0,5.5,5.5,0,0,0-11,0A.5.5,0,0,0,7,12.5Z"/><path class="cls-1" d="M20.5,17.5H14a.5.5,0,0,0,0,1h6.5a.5.5,0,0,0,0-1Z"/><path class="cls-1" d="M10.5,18a.5.5,0,0,0-.5-.5H3.5a.5.5,0,0,0,0,1H10A.5.5,0,0,0,10.5,18Z"/><path class="cls-1" d="M19,20.5H16.5a.5.5,0,0,0,0,1H19a.5.5,0,0,0,0-1Z"/><path class="cls-1" d="M12.5,20.5H5a.5.5,0,0,0,0,1h7.5a.5.5,0,0,0,0-1Z"/><path class="cls-1" d="M22,14.5H10a.5.5,0,0,0,0,1H22a.5.5,0,0,0,0-1Z"/><path class="cls-1" d="M6.5,15a.5.5,0,0,0-.5-.5H2a.5.5,0,0,0,0,1H6A.5.5,0,0,0,6.5,15Z"/></svg>