<svg id="Layer_1" data-name="Layer 1" xmlns="http://www.w3.org/2000/svg" viewBox="0 0 24 24"><defs><style>.cls-1{fill:#4a5568;}</style></defs><path class="cls-1" d="M20.5,17.5H14a.5.5,0,0,0,0,1h6.5a.5.5,0,0,0,0-1Z"/><path class="cls-1" d="M10.5,18a.5.5,0,0,0-.5-.5H3.5a.5.5,0,0,0,0,1H10A.5.5,0,0,0,10.5,18Z"/><path class="cls-1" d="M19,20.5H16.5a.5.5,0,0,0,0,1H19a.5.5,0,0,0,0-1Z"/><path class="cls-1" d="M12.5,20.5H5a.5.5,0,0,0,0,1h7.5a.5.5,0,0,0,0-1Z"/><path class="cls-1" d="M22,14.5H10a.5.5,0,0,0,0,1H22a.5.5,0,0,0,0-1Z"/><path class="cls-1" d="M6.5,15a.5.5,0,0,0-.5-.5H2a.5.5,0,0,0,0,1H6A.5.5,0,0,0,6.5,15Z"/><path class="cls-1" d="M20.59,13.5h.07a.5.5,0,0,0,.49-.43,8.2,8.2,0,0,0,.1-1.32A9.72,9.72,0,0,0,21,9.66a.5.5,0,0,0-.36-.37.47.47,0,0,0-.49.14,4.13,4.13,0,1,1-5.84-5.84.47.47,0,0,0,.14-.49.5.5,0,0,0-.37-.36A9.65,9.65,0,0,0,12,2.5a9.26,9.26,0,0,0-9.25,9.25,8.2,8.2,0,0,0,.1,1.32.5.5,0,1,0,1-.14,9.23,9.23,0,0,1-.08-1.18A8.26,8.26,0,0,1,12,3.5a7,7,0,0,1,1,.07,5.07,5.07,0,0,0-1,3,5.15,5.15,0,0,0,5.14,5.14,5.07,5.07,0,0,0,3-1,7,7,0,0,1,.07,1,9.23,9.23,0,0,1-.08,1.18A.5.5,0,0,0,20.59,13.5Z"/></svg>