<svg id="Layer_1" data-name="Layer 1" xmlns="http://www.w3.org/2000/svg" viewBox="0 0 24 24"><defs><style>.cls-1{fill:#4a5568;}</style></defs><path class="cls-1" d="M2.47,16.5A3.5,3.5,0,0,0,6,20H16a4.5,4.5,0,0,0,0-9,3.86,3.86,0,0,0-.81.09l0-.07a4.34,4.34,0,0,0-.25-.54l-.1-.16a5.66,5.66,0,0,0-.31-.48l-.13-.14a4.61,4.61,0,0,0-.63-.62l-.33-.26-.31-.18a4,4,0,0,0-.41-.21l-.32-.13a4.13,4.13,0,0,0-.5-.15l-.28-.07A4.6,4.6,0,0,0,10.72,8h-.25a5,5,0,0,0-5,5v0A3.5,3.5,0,0,0,2.47,16.5ZM5.93,14,6,13.51,6,14a.52.52,0,0,0,.37-.16.51.51,0,0,0,.12-.39l0-.16a2.58,2.58,0,0,1,0-.29,4,4,0,0,1,4-4h.25a3.73,3.73,0,0,1,.68.07,1.83,1.83,0,0,1,.25.06l.38.11.3.14.27.14.32.2.18.15.32.29.09.11a3.61,3.61,0,0,1,.83,1.54s0,0,0,0a3,3,0,0,1,.11.67A.5.5,0,0,0,15,13h0a.51.51,0,0,0,.47-.53c0-.14-.05-.27-.07-.41A2.91,2.91,0,0,1,16,12a3.5,3.5,0,0,1,0,7H6a2.5,2.5,0,0,1,0-5Z"/><path class="cls-1" d="M17.53,5.75h-.08l-.07-.08a2.17,2.17,0,0,0-.24-.29A4.54,4.54,0,0,0,16.76,5l-.17-.12a3.28,3.28,0,0,0-.38-.27l-.15-.08a3.15,3.15,0,0,0-.59-.27h0a3.89,3.89,0,0,0-.61-.16l-.15,0A3.68,3.68,0,0,0,14,4a4.23,4.23,0,0,0-3.74,2.27.5.5,0,1,0,.88.46A3.23,3.23,0,0,1,14,5a3.56,3.56,0,0,1,.73.09l.18,0a3.58,3.58,0,0,1,.64.26h0a4.07,4.07,0,0,1,.63.46l.05.06a3,3,0,0,1,.5.62l0,0a3.56,3.56,0,0,1,.4,1,.5.5,0,0,0,.49.4h.1a.49.49,0,0,0,.39-.59A3.8,3.8,0,0,0,18,6.8a3,3,0,0,1,2.52,3,3,3,0,0,1-.46,1.56.5.5,0,0,0,.17.69.48.48,0,0,0,.26.07.51.51,0,0,0,.43-.23,4,4,0,0,0-3.4-6.09Z"/></svg>