<svg id="Layer_1" data-name="Layer 1" xmlns="http://www.w3.org/2000/svg" viewBox="0 0 24 24"><defs><style>.cls-1{fill:#4a5568;}</style></defs><path class="cls-1" d="M12,14.5a.5.5,0,0,0-1,0v1a.5.5,0,0,0,1,0Z"/><path class="cls-1" d="M13.5,18a.5.5,0,0,0-.5.5v1a.5.5,0,0,0,1,0v-1A.5.5,0,0,0,13.5,18Z"/><path class="cls-1" d="M14,15.5a.5.5,0,0,0-1,0v1a.5.5,0,0,0,1,0Z"/><path class="cls-1" d="M9.5,18a.5.5,0,0,0-.5.5v1a.5.5,0,0,0,1,0v-1A.5.5,0,0,0,9.5,18Z"/><path class="cls-1" d="M11.5,17a.5.5,0,0,0-.5.5v1a.5.5,0,0,0,1,0v-1A.5.5,0,0,0,11.5,17Z"/><path class="cls-1" d="M16.5,15a.5.5,0,0,0,0,1,4.5,4.5,0,0,0,0-9h-.76A4.49,4.49,0,0,0,11.5,4H11A5,5,0,0,0,6,9a3.5,3.5,0,0,0,.5,7,.5.5,0,0,0,0-1,2.5,2.5,0,0,1,0-5A.5.5,0,0,0,7,9.5V9a4,4,0,0,1,4-4h.5A3.5,3.5,0,0,1,15,8.5a.5.5,0,0,0,1,0A4.07,4.07,0,0,0,16,8h.53a3.5,3.5,0,0,1,0,7Z"/><path class="cls-1" d="M10,15.5a.5.5,0,0,0-1,0v1a.5.5,0,0,0,1,0Z"/></svg>