<svg id="Layer_1" data-name="Layer 1" xmlns="http://www.w3.org/2000/svg" viewBox="0 0 24 24"><defs><style>.cls-1{fill:#4a5568;}</style></defs><path class="cls-1" d="M5.42,18A.48.48,0,0,0,6,17.54.49.49,0,0,0,5.58,17a2.5,2.5,0,0,1,.35-5,.49.49,0,0,0,.39-.08.52.52,0,0,0,.21-.47l0-.19a2.06,2.06,0,0,1,0-.26,4,4,0,0,1,4-4h.26a3.71,3.71,0,0,1,.67.07h.09a5,5,0,0,1,.63.19h0l0,0a4,4,0,0,1,.93.57l.08.06a3.79,3.79,0,0,1,1.17,1.89s0,0,0,.06a3.63,3.63,0,0,1,.1.66A.5.5,0,0,0,15,11h0a.51.51,0,0,0,.47-.53c0-.14-.05-.27-.07-.41A4.26,4.26,0,0,1,16,10a3.5,3.5,0,0,1,0,7H15.5a.5.5,0,0,0,0,1H16a4.5,4.5,0,0,0,0-9,3.94,3.94,0,0,0-.81.09v0a4.52,4.52,0,0,0-.34-.7s0,0,0-.08a5.06,5.06,0,0,0-.42-.58l-.11-.12a4.08,4.08,0,0,0-.47-.46c-.06-.06-.13-.1-.19-.15a5.11,5.11,0,0,0-.48-.33L13,6.58l-.21-.11a.84.84,0,0,0-.2-.08l-.12-.06h0l-.26-.08a1.46,1.46,0,0,0-.2,0,4.15,4.15,0,0,0-.48-.11l-.13,0a.81.81,0,0,0-.24,0l-.4,0h-.26a5,5,0,0,0-5,5v0a3.49,3.49,0,0,0,0,6.91Z"/><path class="cls-1" d="M17.53,3.75h-.08l-.07-.09-.23-.28a4.75,4.75,0,0,0-.4-.38l-.15-.11a3.6,3.6,0,0,0-.4-.28l-.14-.08a3.15,3.15,0,0,0-.59-.27h0a4.34,4.34,0,0,0-.62-.16l-.15,0A3.68,3.68,0,0,0,14,2a4.23,4.23,0,0,0-3.74,2.27.49.49,0,0,0,.2.67.5.5,0,0,0,.68-.21A3.23,3.23,0,0,1,14,3a3.38,3.38,0,0,1,.72.09l.19.05a3.48,3.48,0,0,1,.63.26l0,0a3.31,3.31,0,0,1,.61.45l.06.06a3,3,0,0,1,.5.62l0,0a3.56,3.56,0,0,1,.4,1,.5.5,0,0,0,.49.4h.1a.49.49,0,0,0,.39-.59A3.8,3.8,0,0,0,18,4.8a3,3,0,0,1,2.52,3,3,3,0,0,1-.46,1.56.5.5,0,0,0,.17.69.48.48,0,0,0,.26.07.51.51,0,0,0,.43-.23,4,4,0,0,0-3.4-6.09Z"/><path class="cls-1" d="M8.5,19a.5.5,0,0,0,.5-.5v-1a.5.5,0,0,0-1,0v1A.5.5,0,0,0,8.5,19Z"/><path class="cls-1" d="M8,21.5a.5.5,0,0,0,1,0v-1a.5.5,0,0,0-1,0Z"/><path class="cls-1" d="M10.5,18a.5.5,0,0,0,.5-.5v-1a.5.5,0,0,0-1,0v1A.5.5,0,0,0,10.5,18Z"/><path class="cls-1" d="M10,20.5a.5.5,0,0,0,1,0v-1a.5.5,0,0,0-1,0Z"/><path class="cls-1" d="M12.5,19a.5.5,0,0,0,.5-.5v-1a.5.5,0,0,0-1,0v1A.5.5,0,0,0,12.5,19Z"/><path class="cls-1" d="M12,21.5a.5.5,0,0,0,1,0v-1a.5.5,0,0,0-1,0Z"/></svg>