<svg id="Layer_1" data-name="Layer 1" xmlns="http://www.w3.org/2000/svg" viewBox="0 0 24 24"><defs><style>.cls-1{fill:#4a5568;}</style></defs><path class="cls-1" d="M8.5,20a.5.5,0,0,0-.5.5v1a.5.5,0,0,0,1,0v-1A.5.5,0,0,0,8.5,20Z"/><path class="cls-1" d="M5.5,18a.5.5,0,0,0,0-1,2.5,2.5,0,0,1,0-5,.5.5,0,0,0,.5-.5V11a4,4,0,0,1,4-4h.5A3.5,3.5,0,0,1,14,10.5a.5.5,0,0,0,1,0,4.07,4.07,0,0,0,0-.5h.53a3.5,3.5,0,0,1,0,7,.5.5,0,0,0,0,1,4.5,4.5,0,0,0,0-9h-.76A4.49,4.49,0,0,0,10.5,6H10a5,5,0,0,0-5,5,3.5,3.5,0,0,0,.5,7Z"/><path class="cls-1" d="M12.5,20a.5.5,0,0,0-.5.5v1a.5.5,0,0,0,1,0v-1A.5.5,0,0,0,12.5,20Z"/><path class="cls-1" d="M11,16.5a.5.5,0,0,0-1,0v1a.5.5,0,0,0,1,0Z"/><path class="cls-1" d="M10.5,19a.5.5,0,0,0-.5.5v1a.5.5,0,0,0,1,0v-1A.5.5,0,0,0,10.5,19Z"/><path class="cls-1" d="M9,17.5a.5.5,0,0,0-1,0v1a.5.5,0,0,0,1,0Z"/><path class="cls-1" d="M21.18,5.62A2,2,0,0,1,20,6a2,2,0,0,1-2-2,2,2,0,0,1,.38-1.18A.5.5,0,0,0,18,2a4.89,4.89,0,0,0-.54,0,4.5,4.5,0,0,0-4.36,3.38A.5.5,0,0,0,13.5,6a.51.51,0,0,0,.61-.36A3.5,3.5,0,0,1,17.17,3,2.93,2.93,0,0,0,17,4a3,3,0,0,0,3,3,2.93,2.93,0,0,0,1-.17,3.43,3.43,0,0,1-.87,2,.5.5,0,1,0,.75.67A4.5,4.5,0,0,0,22,6.5,4.89,4.89,0,0,0,22,6,.5.5,0,0,0,21.18,5.62Z"/><path class="cls-1" d="M13,17.5a.5.5,0,0,0-1,0v1a.5.5,0,0,0,1,0Z"/></svg>