<svg id="Layer_1" data-name="Layer 1" xmlns="http://www.w3.org/2000/svg" viewBox="0 0 24 24"><defs><style>.cls-1{fill:#4a5568;}</style></defs><path class="cls-1" d="M15.5,9.5h-.76a4.49,4.49,0,0,0-4.24-3H10a5,5,0,0,0-5,5,3.5,3.5,0,0,0,.5,7,.5.5,0,0,0,0-1,2.5,2.5,0,0,1,0-5A.5.5,0,0,0,6,12v-.5a4,4,0,0,1,4-4h.5A3.5,3.5,0,0,1,14,11a.5.5,0,0,0,1,0,4.07,4.07,0,0,0,0-.5h.53a3.5,3.5,0,0,1,0,7,.5.5,0,0,0,0,1,4.5,4.5,0,0,0,0-9Z"/><path class="cls-1" d="M10.5,19.5H10V19a.5.5,0,0,0-1,0v.5H8.5a.5.5,0,0,0,0,1H9V21a.5.5,0,0,0,1,0v-.5h.5a.5.5,0,0,0,0-1Z"/><path class="cls-1" d="M13.5,17.5H13V17a.5.5,0,0,0-1,0v.5h-.5a.5.5,0,0,0,0,1H12V19a.5.5,0,0,0,1,0v-.5h.5a.5.5,0,0,0,0-1Z"/><path class="cls-1" d="M8,17a.5.5,0,0,0,1,0v-.5h.5a.5.5,0,0,0,0-1H9V15a.5.5,0,0,0-1,0v.5H7.5a.5.5,0,0,0,0,1H8Z"/><path class="cls-1" d="M21.18,6.12A2,2,0,0,1,20,6.5a2,2,0,0,1-2-2,2,2,0,0,1,.38-1.18A.5.5,0,0,0,18,2.53a4.89,4.89,0,0,0-.54,0,4.5,4.5,0,0,0-4.36,3.38.5.5,0,0,0,.36.61.51.51,0,0,0,.61-.36,3.5,3.5,0,0,1,3.06-2.61,2.93,2.93,0,0,0-.17,1,3,3,0,0,0,3,3,2.93,2.93,0,0,0,1-.17,3.43,3.43,0,0,1-.87,2,.5.5,0,1,0,.75.67A4.5,4.5,0,0,0,22,7a4.89,4.89,0,0,0,0-.54A.5.5,0,0,0,21.18,6.12Z"/></svg>