<svg id="Layer_1" data-name="Layer 1" xmlns="http://www.w3.org/2000/svg" viewBox="0 0 24 24"><defs><style>.cls-1{fill:#4a5568;}</style></defs><path class="cls-1" d="M12,17.5A5.5,5.5,0,1,0,6.5,12,5.5,5.5,0,0,0,12,17.5Zm0-10A4.5,4.5,0,1,1,7.5,12,4.49,4.49,0,0,1,12,7.5Z"/><path class="cls-1" d="M12,5.5a.5.5,0,0,0,.5-.5V2a.5.5,0,0,0-1,0V5A.5.5,0,0,0,12,5.5Z"/><path class="cls-1" d="M17.3,7.4l2.05-2.05a.49.49,0,1,0-.7-.7l-2,2.05a.49.49,0,0,0,.7.7Z"/><path class="cls-1" d="M22,11.5H19a.5.5,0,0,0,0,1h3a.5.5,0,0,0,0-1Z"/><path class="cls-1" d="M2,12.5H5a.5.5,0,0,0,0-1H2a.5.5,0,0,0,0,1Z"/><path class="cls-1" d="M12.5,22V19a.5.5,0,0,0-1,0v3a.5.5,0,0,0,1,0Z"/><path class="cls-1" d="M6.7,7.4a.49.49,0,1,0,.7-.7l-2.05-2a.49.49,0,0,0-.7.7Z"/><path class="cls-1" d="M5.35,19.35,7.4,17.3a.49.49,0,0,0-.7-.7l-2,2a.49.49,0,0,0,.7.7Z"/><path class="cls-1" d="M17.3,16.6a.49.49,0,0,0-.7.7l2,2.05a.49.49,0,0,0,.7-.7Z"/></svg>